<svg xmlns="http://www.w3.org/2000/svg" viewBox="0 0 320 80" fill="none">
  <!-- Icon (shield compact) -->
  <g transform="translate(8, 4)">
    <path d="M32 2L8 14v18c0 14 10 27 24 30 14-3 24-16 24-30V14L32 2z" fill="#003366"/>
    <path d="M32 7L12 17v15c0 12 8.5 23.5 20 26 11.5-2.5 20-14 20-26V17L32 7z" fill="white"/>

    <!-- Barcode -->
    <rect x="20" y="20" width="2" height="12" fill="#003366"/>
    <rect x="24" y="20" width="3" height="12" fill="#003366"/>
    <rect x="29" y="20" width="1.5" height="12" fill="#003366"/>
    <rect x="33" y="20" width="2.5" height="12" fill="#003366"/>
    <rect x="38" y="20" width="1.5" height="12" fill="#003366"/>
    <rect x="42" y="20" width="2" height="12" fill="#003366"/>

    <!-- Arrows -->
    <path d="M24 43a8 8 0 0 1 13.7-5.7" stroke="#2D6E2D" stroke-width="2.2" stroke-linecap="round" fill="none"/>
    <polygon points="39,36 36.5,40 34.8,36" fill="#2D6E2D"/>
    <path d="M40 43a8 8 0 0 1-13.7 5.7" stroke="#2D6E2D" stroke-width="2.2" stroke-linecap="round" fill="none"/>
    <polygon points="25,50 27.5,46 29.2,50" fill="#2D6E2D"/>
  </g>

  <!-- Text -->
  <text x="82" y="38" font-family="Inter, 'Century Gothic', Calibri, sans-serif" font-weight="700" font-size="30" fill="#003366" letter-spacing="1">SIMAP</text>
  <text x="82" y="58" font-family="Inter, 'Century Gothic', Calibri, sans-serif" font-weight="400" font-size="11" fill="#666666" letter-spacing="0.5">Movimentação e Acompanhamento Patrimonial</text>

  <!-- Divider line -->
  <line x1="82" y1="42" x2="300" y2="42" stroke="#2D6E2D" stroke-width="1.5" opacity="0.6"/>
</svg>
